{
  "accessors": [
    {
      "bufferView": 2,
      "componentType": 5126,
      "count": 65532,
      "max": [
        0.3782989978790283,
        0.40245044231414795,
        -0.005506789777427912
      ],
      "min": [
        -0.4192716181278229,
        -0.2994633615016937,
        -1.8959219455718994
      ],
      "type": "VEC3"
    },
    {
      "bufferView": 2,
      "byteOffset": 786384,
      "componentType": 5126,
      "count": 65532,
      "max": [
        1.0,
        0.9999974966049194,
        1.0
      ],
      "min": [
        -0.9999994039535522,
        -0.9999998807907104,
        -0.999997615814209
      ],
      "type": "VEC3"
    },
    {
      "bufferView": 3,
      "componentType": 5126,
      "count": 65532,
      "max": [
        0.9999086260795593,
        0.9999999403953552,
        0.9999891519546509,
        1.0
      ],
      "min": [
        -1.0,
        -0.9999229311943054,
        -0.9999496936798096,
        1.0
      ],
      "type": "VEC4"
    },
    {
      "bufferView": 1,
      "componentType": 5126,
      "count": 65532,
      "max": [
        0.997979998588562,
        0.9980400204658508
      ],
      "min": [
        0.0019499999471008778,
        0.0019499999471008778
      ],
      "type": "VEC2"
    },
    {
      "bufferView": 0,
      "componentType": 5125,
      "count": 324930,
      "type": "SCALAR"
    },
    {
      "bufferView": 2,
      "byteOffset": 1572768,
      "componentType": 5126,
      "count": 65532,
      "max": [
        0.372024804353714,
        0.40245044231414795,
        -0.005507130175828934
      ],
      "min": [
        -0.4209946393966675,
        -0.29702553153038025,
        -1.8959219455718994
      ],
      "type": "VEC3"
    },
    {
      "bufferView": 2,
      "byteOffset": 2359152,
      "componentType": 5126,
      "count": 65532,
      "max": [
        1.0,
        0.9999974966049194,
        1.0
      ],
      "min": [
        -0.9999998807907104,
        -0.9999988079071045,
        -0.9999922513961792
      ],
      "type": "VEC3"
    },
    {
      "bufferView": 3,
      "byteOffset": 1048512,
      "componentType": 5126,
      "count": 65532,
      "max": [
        0.9999982118606567,
        0.9997694492340088,
        0.9999685883522034,
        1.0
      ],
      "min": [
        -1.0,
        -0.9997798204421997,
        -0.999998152256012,
        1.0
      ],
      "type": "VEC4"
    },
    {
      "bufferView": 1,
      "byteOffset": 524256,
      "componentType": 5126,
      "count": 65532,
      "max": [
        0.9978200197219849,
        0.9904199838638306
      ],
      "min": [
        0.0019499999471008778,
        0.0019499999471008778
      ],
      "type": "VEC2"
    },
    {
      "bufferView": 0,
      "byteOffset": 1299720,
      "componentType": 5125,
      "count": 327876,
      "type": "SCALAR"
    },
    {
      "bufferView": 2,
      "byteOffset": 3145536,
      "componentType": 5126,
      "count": 35160,
      "max": [
        0.18820570409297943,
        0.3195425570011139,
        -0.12134218961000443
      ],
      "min": [
        -0.16999340057373047,
        -0.29408448934555054,
        -1.8735990524291992
      ],
      "type": "VEC3"
    },
    {
      "bufferView": 2,
      "byteOffset": 3567456,
      "componentType": 5126,
      "count": 35160,
      "max": [
        0.9999908208847046,
        0.9999953508377075,
        0.999751091003418
      ],
      "min": [
        -0.999996542930603,
        -0.9999895095825195,
        -0.999995231628418
      ],
      "type": "VEC3"
    },
    {
      "bufferView": 3,
      "byteOffset": 2097024,
      "componentType": 5126,
      "count": 35160,
      "max": [
        0.9999851584434509,
        0.9999579787254333,
        0.9999815225601196,
        1.0
      ],
      "min": [
        -0.9999923706054688,
        -0.999981164932251,
        -1.0,
        1.0
      ],
      "type": "VEC4"
    },
    {
      "bufferView": 1,
      "byteOffset": 1048512,
      "componentType": 5126,
      "count": 35160,
      "max": [
        0.9966199994087219,
        0.9962999820709229
      ],
      "min": [
        0.0019499999471008778,
        0.0019499999471008778
      ],
      "type": "VEC2"
    },
    {
      "bufferView": 0,
      "byteOffset": 2611224,
      "componentType": 5125,
      "count": 170490,
      "type": "SCALAR"
    },
    {
      "bufferView": 2,
      "byteOffset": 3989376,
      "componentType": 5126,
      "count": 1186,
      "max": [
        -0.05743369832634926,
        0.32854393124580383,
        -1.469015121459961
      ],
      "min": [
        -0.13900649547576904,
        -0.2931020259857178,
        -1.8881969451904297
      ],
      "type": "VEC3"
    },
    {
      "bufferView": 2,
      "byteOffset": 4003608,
      "componentType": 5126,
      "count": 1186,
      "max": [
        0.4233649969100952,
        0.9600555300712585,
        0.7158006429672241
      ],
      "min": [
        -0.3269233703613281,
        -0.904620349407196,
        -0.8310926556587219
      ],
      "type": "VEC3"
    },
    {
      "bufferView": 1,
      "byteOffset": 1329792,
      "componentType": 5126,
      "count": 1186,
      "max": [
        0.7763800024986267,
        0.929830014705658
      ],
      "min": [
        0.00494999997317791,
        0.20967000722885132
      ],
      "type": "VEC2"
    },
    {
      "bufferView": 0,
      "byteOffset": 3293184,
      "componentType": 5125,
      "count": 5976,
      "type": "SCALAR"
    }
  ],
  "asset": {
    "extras": {
      "author": "Malopolska`s Virtual Museums (https://sketchfab.com/WirtualneMuzeaMalopolski)",
      "license": "CC-BY-4.0 (http://creativecommons.org/licenses/by/4.0/)",
      "source": "https://sketchfab.com/3d-models/comet-seeker-51fbdc98be7c4c968c43bcc6a7526f7f",
      "title": "Comet seeker"
    },
    "generator": "Sketchfab-10.93.0",
    "version": "2.0"
  },
  "bufferViews": [
    {
      "buffer": 0,
      "byteLength": 3317088,
      "name": "floatBufferViews",
      "target": 34963
    },
    {
      "buffer": 0,
      "byteLength": 1339280,
      "byteOffset": 3317088,
      "byteStride": 8,
      "name": "floatBufferViews",
      "target": 34962
    },
    {
      "buffer": 0,
      "byteLength": 4017840,
      "byteOffset": 4656368,
      "byteStride": 12,
      "name": "floatBufferViews",
      "target": 34962
    },
    {
      "buffer": 0,
      "byteLength": 2659584,
      "byteOffset": 8674208,
      "byteStride": 16,
      "name": "floatBufferViews",
      "target": 34962
    }
  ],
  "buffers": [
    {
      "byteLength": 11333792,
      "uri": "scene.bin"
    }
  ],
  "extensionsUsed": [
    "KHR_materials_transmission"
  ],
  "images": [
    {
      "uri": "textures/luneta_baseColor.png"
    },
    {
      "uri": "textures/luneta_metallicRoughness.png"
    },
    {
      "uri": "textures/luneta_normal.png"
    }
  ],
  "materials": [
    {
      "doubleSided": true,
      "name": "luneta",
      "normalTexture": {
        "index": 2
      },
      "occlusionTexture": {
        "index": 1
      },
      "pbrMetallicRoughness": {
        "baseColorTexture": {
          "index": 0
        },
        "metallicRoughnessTexture": {
          "index": 1
        }
      }
    },
    {
      "alphaMode": "BLEND",
      "doubleSided": true,
      "extensions": {
        "KHR_materials_transmission": {
          "transmissionFactor": 0.40851315445463887
        }
      },
      "name": "szklo",
      "pbrMetallicRoughness": {
        "baseColorFactor": [
          0.016755556183905434,
          0.012615301523341548,
          0.03709710925778361,
          0.5914868455453611
        ],
        "roughnessFactor": 0.0
      }
    }
  ],
  "meshes": [
    {
      "name": "Object_0",
      "primitives": [
        {
          "attributes": {
            "NORMAL": 1,
            "POSITION": 0,
            "TANGENT": 2,
            "TEXCOORD_0": 3
          },
          "indices": 4,
          "material": 0,
          "mode": 4
        }
      ]
    },
    {
      "name": "Object_1",
      "primitives": [
        {
          "attributes": {
            "NORMAL": 6,
            "POSITION": 5,
            "TANGENT": 7,
            "TEXCOORD_0": 8
          },
          "indices": 9,
          "material": 0,
          "mode": 4
        }
      ]
    },
    {
      "name": "Object_2",
      "primitives": [
        {
          "attributes": {
            "NORMAL": 11,
            "POSITION": 10,
            "TANGENT": 12,
            "TEXCOORD_0": 13
          },
          "indices": 14,
          "material": 0,
          "mode": 4
        }
      ]
    },
    {
      "name": "Object_3",
      "primitives": [
        {
          "attributes": {
            "NORMAL": 16,
            "POSITION": 15,
            "TEXCOORD_0": 17
          },
          "indices": 18,
          "material": 1,
          "mode": 4
        }
      ]
    }
  ],
  "nodes": [
    {
      "children": [
        1
      ],
      "matrix": [
        1.0,
        0.0,
        0.0,
        0.0,
        0.0,
        2.220446049250313e-16,
        -1.0,
        0.0,
        0.0,
        1.0,
        2.220446049250313e-16,
        0.0,
        0.0,
        0.0,
        0.0,
        1.0
      ],
      "name": "Sketchfab_model"
    },
    {
      "children": [
        2
      ],
      "name": "root"
    },
    {
      "children": [
        3
      ],
      "matrix": [
        1.0,
        0.0,
        0.0,
        0.0,
        0.0,
        2.220446049250313e-16,
        1.0,
        0.0,
        0.0,
        -1.0,
        2.220446049250313e-16,
        0.0,
        0.0,
        0.0,
        0.0,
        1.0
      ],
      "name": "GLTF_SceneRootNode"
    },
    {
      "children": [
        4,
        5,
        6,
        7
      ],
      "matrix": [
        1.0,
        0.0,
        0.0,
        0.0,
        0.0,
        -1.685873969314855e-07,
        0.9999999999999858,
        0.0,
        0.0,
        -0.9999999999999858,
        -1.685873969314855e-07,
        0.0,
        0.0,
        0.0,
        0.0,
        1.0
      ],
      "name": "Poszukiwacz_04_ZBUV_2"
    },
    {
      "mesh": 0,
      "name": "Object_4"
    },
    {
      "mesh": 1,
      "name": "Object_5"
    },
    {
      "mesh": 2,
      "name": "Object_6"
    },
    {
      "mesh": 3,
      "name": "Object_7"
    }
  ],
  "samplers": [
    {
      "magFilter": 9729,
      "minFilter": 9987,
      "wrapS": 10497,
      "wrapT": 10497
    }
  ],
  "scene": 0,
  "scenes": [
    {
      "name": "Sketchfab_Scene",
      "nodes": [
        0
      ]
    }
  ],
  "textures": [
    {
      "sampler": 0,
      "source": 0
    },
    {
      "sampler": 0,
      "source": 1
    },
    {
      "sampler": 0,
      "source": 2
    }
  ]
}
